<svg width="243" height="47" viewBox="0 0 243 47" fill="none" xmlns="http://www.w3.org/2000/svg">
<mask id="path-1-outside-1_140_6" maskUnits="userSpaceOnUse" x="0" y="0" width="243" height="47" fill="black">
<rect fill="white" width="243" height="47"/>
<path d="M35.288 1.072V9.84H23.384V46H12.44V9.84H0.536V1.072H35.288ZM51.7245 9.84V18.928H66.3805V27.376H51.7245V37.232H68.3005V46H40.7805V1.072H68.3005V9.84H51.7245Z"/>
<path d="M102.926 18.992V28.08H74.7655V18.992H102.926ZM138.579 46L123.475 26.16V46H112.531V1.072H123.475V20.784L138.451 1.072H151.315L133.907 23.088L151.955 46H138.579ZM178.404 46.448C174.18 46.448 170.297 45.4667 166.756 43.504C163.257 41.5413 160.462 38.8107 158.372 35.312C156.323 31.7707 155.299 27.8027 155.299 23.408C155.299 19.0133 156.323 15.0667 158.372 11.568C160.462 8.06933 163.257 5.33867 166.756 3.376C170.297 1.41333 174.18 0.431999 178.404 0.431999C182.628 0.431999 186.489 1.41333 189.988 3.376C193.529 5.33867 196.302 8.06933 198.308 11.568C200.356 15.0667 201.38 19.0133 201.38 23.408C201.38 27.8027 200.356 31.7707 198.308 35.312C196.26 38.8107 193.486 41.5413 189.988 43.504C186.489 45.4667 182.628 46.448 178.404 46.448ZM178.404 36.464C181.988 36.464 184.846 35.2693 186.979 32.88C189.156 30.4907 190.244 27.3333 190.244 23.408C190.244 19.44 189.156 16.2827 186.979 13.936C184.846 11.5467 181.988 10.352 178.404 10.352C174.777 10.352 171.876 11.5253 169.7 13.872C167.566 16.2187 166.5 19.3973 166.5 23.408C166.5 27.376 167.566 30.5547 169.7 32.944C171.876 35.2907 174.777 36.464 178.404 36.464ZM230.38 46L221.036 29.04H218.412V46H207.468V1.072H225.836C229.377 1.072 232.385 1.69066 234.86 2.928C237.377 4.16533 239.255 5.872 240.492 8.048C241.729 10.1813 242.348 12.5707 242.348 15.216C242.348 18.2027 241.495 20.8693 239.788 23.216C238.124 25.5627 235.649 27.2267 232.364 28.208L242.732 46H230.38ZM218.412 21.296H225.196C227.201 21.296 228.695 20.8053 229.676 19.824C230.7 18.8427 231.212 17.456 231.212 15.664C231.212 13.9573 230.7 12.6133 229.676 11.632C228.695 10.6507 227.201 10.16 225.196 10.16H218.412V21.296Z"/>
</mask>
<path d="M35.288 1.072V9.84H23.384V46H12.44V9.84H0.536V1.072H35.288ZM51.7245 9.84V18.928H66.3805V27.376H51.7245V37.232H68.3005V46H40.7805V1.072H68.3005V9.84H51.7245Z" fill="url(#paint0_linear_140_6)"/>
<path d="M102.926 18.992V28.08H74.7655V18.992H102.926ZM138.579 46L123.475 26.16V46H112.531V1.072H123.475V20.784L138.451 1.072H151.315L133.907 23.088L151.955 46H138.579ZM178.404 46.448C174.18 46.448 170.297 45.4667 166.756 43.504C163.257 41.5413 160.462 38.8107 158.372 35.312C156.323 31.7707 155.299 27.8027 155.299 23.408C155.299 19.0133 156.323 15.0667 158.372 11.568C160.462 8.06933 163.257 5.33867 166.756 3.376C170.297 1.41333 174.18 0.431999 178.404 0.431999C182.628 0.431999 186.489 1.41333 189.988 3.376C193.529 5.33867 196.302 8.06933 198.308 11.568C200.356 15.0667 201.38 19.0133 201.38 23.408C201.38 27.8027 200.356 31.7707 198.308 35.312C196.26 38.8107 193.486 41.5413 189.988 43.504C186.489 45.4667 182.628 46.448 178.404 46.448ZM178.404 36.464C181.988 36.464 184.846 35.2693 186.979 32.88C189.156 30.4907 190.244 27.3333 190.244 23.408C190.244 19.44 189.156 16.2827 186.979 13.936C184.846 11.5467 181.988 10.352 178.404 10.352C174.777 10.352 171.876 11.5253 169.7 13.872C167.566 16.2187 166.5 19.3973 166.5 23.408C166.5 27.376 167.566 30.5547 169.7 32.944C171.876 35.2907 174.777 36.464 178.404 36.464ZM230.38 46L221.036 29.04H218.412V46H207.468V1.072H225.836C229.377 1.072 232.385 1.69066 234.86 2.928C237.377 4.16533 239.255 5.872 240.492 8.048C241.729 10.1813 242.348 12.5707 242.348 15.216C242.348 18.2027 241.495 20.8693 239.788 23.216C238.124 25.5627 235.649 27.2267 232.364 28.208L242.732 46H230.38ZM218.412 21.296H225.196C227.201 21.296 228.695 20.8053 229.676 19.824C230.7 18.8427 231.212 17.456 231.212 15.664C231.212 13.9573 230.7 12.6133 229.676 11.632C228.695 10.6507 227.201 10.16 225.196 10.16H218.412V21.296Z" fill="black"/>
<path d="M35.288 1.072H35.388V0.971999H35.288V1.072ZM35.288 9.84V9.94H35.388V9.84H35.288ZM23.384 9.84V9.74H23.284V9.84H23.384ZM23.384 46V46.1H23.484V46H23.384ZM12.44 46H12.34V46.1H12.44V46ZM12.44 9.84H12.54V9.74H12.44V9.84ZM0.536 9.84H0.436V9.94H0.536V9.84ZM0.536 1.072V0.971999H0.436V1.072H0.536ZM35.288 1.072H35.188V9.84H35.288H35.388V1.072H35.288ZM35.288 9.84V9.74H23.384V9.84V9.94H35.288V9.84ZM23.384 9.84H23.284V46H23.384H23.484V9.84H23.384ZM23.384 46V45.9H12.44V46V46.1H23.384V46ZM12.44 46H12.54V9.84H12.44H12.34V46H12.44ZM12.44 9.84V9.74H0.536V9.84V9.94H12.44V9.84ZM0.536 9.84H0.636V1.072H0.536H0.436V9.84H0.536ZM0.536 1.072V1.172H35.288V1.072V0.971999H0.536V1.072ZM51.7245 9.84V9.74H51.6245V9.84H51.7245ZM51.7245 18.928H51.6245V19.028H51.7245V18.928ZM66.3805 18.928H66.4805V18.828H66.3805V18.928ZM66.3805 27.376V27.476H66.4805V27.376H66.3805ZM51.7245 27.376V27.276H51.6245V27.376H51.7245ZM51.7245 37.232H51.6245V37.332H51.7245V37.232ZM68.3005 37.232H68.4005V37.132H68.3005V37.232ZM68.3005 46V46.1H68.4005V46H68.3005ZM40.7805 46H40.6805V46.1H40.7805V46ZM40.7805 1.072V0.971999H40.6805V1.072H40.7805ZM68.3005 1.072H68.4005V0.971999H68.3005V1.072ZM68.3005 9.84V9.94H68.4005V9.84H68.3005ZM51.7245 9.84H51.6245V18.928H51.7245H51.8245V9.84H51.7245ZM51.7245 18.928V19.028H66.3805V18.928V18.828H51.7245V18.928ZM66.3805 18.928H66.2805V27.376H66.3805H66.4805V18.928H66.3805ZM66.3805 27.376V27.276H51.7245V27.376V27.476H66.3805V27.376ZM51.7245 27.376H51.6245V37.232H51.7245H51.8245V27.376H51.7245ZM51.7245 37.232V37.332H68.3005V37.232V37.132H51.7245V37.232ZM68.3005 37.232H68.2005V46H68.3005H68.4005V37.232H68.3005ZM68.3005 46V45.9H40.7805V46V46.1H68.3005V46ZM40.7805 46H40.8805V1.072H40.7805H40.6805V46H40.7805ZM40.7805 1.072V1.172H68.3005V1.072V0.971999H40.7805V1.072ZM68.3005 1.072H68.2005V9.84H68.3005H68.4005V1.072H68.3005ZM68.3005 9.84V9.74H51.7245V9.84V9.94H68.3005V9.84ZM102.926 18.992H103.026V18.892H102.926V18.992ZM102.926 28.08V28.18H103.026V28.08H102.926ZM74.7655 28.08H74.6655V28.18H74.7655V28.08ZM74.7655 18.992V18.892H74.6655V18.992H74.7655ZM102.926 18.992H102.826V28.08H102.926H103.026V18.992H102.926ZM102.926 28.08V27.98H74.7655V28.08V28.18H102.926V28.08ZM74.7655 28.08H74.8655V18.992H74.7655H74.6655V28.08H74.7655ZM74.7655 18.992V19.092H102.926V18.992V18.892H74.7655V18.992ZM138.579 46L138.499 46.0606L138.529 46.1H138.579V46ZM123.475 26.16L123.554 26.0994L123.375 25.8636V26.16H123.475ZM123.475 46V46.1H123.575V46H123.475ZM112.531 46H112.431V46.1H112.531V46ZM112.531 1.072V0.971999H112.431V1.072H112.531ZM123.475 1.072H123.575V0.971999H123.475V1.072ZM123.475 20.784H123.375V21.0809L123.554 20.8445L123.475 20.784ZM138.451 1.072V0.971999H138.401L138.371 1.0115L138.451 1.072ZM151.315 1.072L151.393 1.13402L151.521 0.971999H151.315V1.072ZM133.907 23.088L133.828 23.026L133.779 23.0879L133.828 23.1499L133.907 23.088ZM151.955 46V46.1H152.161L152.033 45.9381L151.955 46ZM138.579 46L138.658 45.9394L123.554 26.0994L123.475 26.16L123.395 26.2206L138.499 46.0606L138.579 46ZM123.475 26.16H123.375V46H123.475H123.575V26.16H123.475ZM123.475 46V45.9H112.531V46V46.1H123.475V46ZM112.531 46H112.631V1.072H112.531H112.431V46H112.531ZM112.531 1.072V1.172H123.475V1.072V0.971999H112.531V1.072ZM123.475 1.072H123.375V20.784H123.475H123.575V1.072H123.475ZM123.475 20.784L123.554 20.8445L138.53 1.13249L138.451 1.072L138.371 1.0115L123.395 20.7235L123.475 20.784ZM138.451 1.072V1.172H151.315V1.072V0.971999H138.451V1.072ZM151.315 1.072L151.236 1.00998L133.828 23.026L133.907 23.088L133.985 23.15L151.393 1.13402L151.315 1.072ZM133.907 23.088L133.828 23.1499L151.876 46.0619L151.955 46L152.033 45.9381L133.985 23.0261L133.907 23.088ZM151.955 46V45.9H138.579V46V46.1H151.955V46ZM166.756 43.504L166.707 43.5912L166.707 43.5915L166.756 43.504ZM158.372 35.312L158.285 35.3621L158.286 35.3633L158.372 35.312ZM158.372 11.568L158.286 11.5167L158.285 11.5175L158.372 11.568ZM166.756 3.376L166.707 3.28853L166.707 3.28879L166.756 3.376ZM189.988 3.376L189.939 3.46321L189.939 3.46346L189.988 3.376ZM198.308 11.568L198.221 11.6177L198.221 11.6185L198.308 11.568ZM198.308 35.312L198.394 35.3625L198.394 35.3621L198.308 35.312ZM189.988 43.504L190.036 43.5912L190.036 43.5912L189.988 43.504ZM186.979 32.88L186.906 32.8127L186.905 32.8134L186.979 32.88ZM186.979 13.936L186.905 14.0026L186.906 14.004L186.979 13.936ZM169.7 13.872L169.626 13.804L169.626 13.8047L169.7 13.872ZM169.7 32.944L169.625 33.0106L169.626 33.012L169.7 32.944ZM178.404 46.448V46.348C174.196 46.348 170.33 45.3706 166.804 43.4165L166.756 43.504L166.707 43.5915C170.264 45.5627 174.163 46.548 178.404 46.548V46.448ZM166.756 43.504L166.804 43.4168C163.321 41.4628 160.539 38.7446 158.457 35.2607L158.372 35.312L158.286 35.3633C160.385 38.8767 163.192 41.6199 166.707 43.5912L166.756 43.504ZM158.372 35.312L158.458 35.2619C156.42 31.7369 155.399 27.7864 155.399 23.408H155.299H155.199C155.199 27.8189 156.227 31.8044 158.285 35.3621L158.372 35.312ZM155.299 23.408H155.399C155.399 19.0295 156.42 15.1006 158.458 11.6185L158.372 11.568L158.285 11.5175C156.227 15.0327 155.199 18.9971 155.199 23.408H155.299ZM158.372 11.568L158.457 11.6193C160.539 8.13537 163.321 5.41719 166.804 3.46321L166.756 3.376L166.707 3.28879C163.192 5.26014 160.385 8.0033 158.286 11.5167L158.372 11.568ZM166.756 3.376L166.804 3.46346C170.33 1.50938 174.196 0.531999 178.404 0.531999V0.431999V0.331999C174.163 0.331999 170.264 1.31728 166.707 3.28853L166.756 3.376ZM178.404 0.431999V0.531999C182.611 0.531999 186.456 1.50938 189.939 3.46321L189.988 3.376L190.036 3.28879C186.522 1.31729 182.644 0.331999 178.404 0.331999V0.431999ZM189.988 3.376L189.939 3.46346C193.464 5.41732 196.225 8.13496 198.221 11.6177L198.308 11.568L198.394 11.5183C196.38 8.0037 193.593 5.26001 190.036 3.28853L189.988 3.376ZM198.308 11.568L198.221 11.6185C200.259 15.1006 201.28 19.0295 201.28 23.408H201.38H201.48C201.48 18.9971 200.452 15.0327 198.394 11.5175L198.308 11.568ZM201.38 23.408H201.28C201.28 27.7864 200.259 31.7369 198.221 35.2619L198.308 35.312L198.394 35.3621C200.452 31.8044 201.48 27.8189 201.48 23.408H201.38ZM198.308 35.312L198.221 35.2615C196.182 38.745 193.422 41.4629 189.939 43.4168L189.988 43.504L190.036 43.5912C193.551 41.6198 196.337 38.8763 198.394 35.3625L198.308 35.312ZM189.988 43.504L189.939 43.4168C186.456 45.3706 182.611 46.348 178.404 46.348V46.448V46.548C182.644 46.548 186.522 45.5627 190.036 43.5912L189.988 43.504ZM178.404 36.464V36.564C182.012 36.564 184.899 35.3598 187.054 32.9466L186.979 32.88L186.905 32.8134C184.793 35.1788 181.963 36.364 178.404 36.364V36.464ZM186.979 32.88L187.053 32.9473C189.25 30.5358 190.344 27.3526 190.344 23.408H190.244H190.144C190.144 27.314 189.061 30.4455 186.906 32.8127L186.979 32.88ZM190.244 23.408H190.344C190.344 19.4211 189.25 16.2373 187.053 13.868L186.979 13.936L186.906 14.004C189.061 16.328 190.144 19.4589 190.144 23.408H190.244ZM186.979 13.936L187.054 13.8694C184.899 11.4562 182.012 10.252 178.404 10.252V10.352V10.452C181.963 10.452 184.793 11.6372 186.905 14.0026L186.979 13.936ZM178.404 10.352V10.252C174.753 10.252 171.824 11.4341 169.626 13.804L169.7 13.872L169.773 13.94C171.927 11.6165 174.801 10.452 178.404 10.452V10.352ZM169.7 13.872L169.626 13.8047C167.471 16.1743 166.4 19.3793 166.4 23.408H166.5H166.6C166.6 19.4154 167.661 16.263 169.773 13.9393L169.7 13.872ZM166.5 23.408H166.4C166.4 27.3945 167.472 30.5988 169.625 33.0106L169.7 32.944L169.774 32.8774C167.661 30.5105 166.6 27.3575 166.6 23.408H166.5ZM169.7 32.944L169.626 33.012C171.824 35.3819 174.753 36.564 178.404 36.564V36.464V36.364C174.801 36.364 171.927 35.1994 169.773 32.876L169.7 32.944ZM230.38 46L230.292 46.0483L230.321 46.1H230.38V46ZM221.036 29.04L221.124 28.9917L221.095 28.94H221.036V29.04ZM218.412 29.04V28.94H218.312V29.04H218.412ZM218.412 46V46.1H218.512V46H218.412ZM207.468 46H207.368V46.1H207.468V46ZM207.468 1.072V0.971999H207.368V1.072H207.468ZM234.86 2.928L234.815 3.01744L234.816 3.01774L234.86 2.928ZM240.492 8.048L240.405 8.09743L240.405 8.09817L240.492 8.048ZM239.788 23.216L239.707 23.1572L239.706 23.1582L239.788 23.216ZM232.364 28.208L232.335 28.1122L232.214 28.1486L232.278 28.2583L232.364 28.208ZM242.732 46V46.1H242.906L242.818 45.9497L242.732 46ZM218.412 21.296H218.312V21.396H218.412V21.296ZM229.676 19.824L229.607 19.7518L229.605 19.7533L229.676 19.824ZM229.676 11.632L229.605 11.7027L229.607 11.7042L229.676 11.632ZM218.412 10.16V10.06H218.312V10.16H218.412ZM230.38 46L230.468 45.9517L221.124 28.9917L221.036 29.04L220.948 29.0883L230.292 46.0483L230.38 46ZM221.036 29.04V28.94H218.412V29.04V29.14H221.036V29.04ZM218.412 29.04H218.312V46H218.412H218.512V29.04H218.412ZM218.412 46V45.9H207.468V46V46.1H218.412V46ZM207.468 46H207.568V1.072H207.468H207.368V46H207.468ZM207.468 1.072V1.172H225.836V1.072V0.971999H207.468V1.072ZM225.836 1.072V1.172C229.366 1.172 232.358 1.78872 234.815 3.01744L234.86 2.928L234.905 2.83855C232.413 1.59261 229.389 0.971999 225.836 0.971999V1.072ZM234.86 2.928L234.816 3.01774C237.317 4.24734 239.179 5.94091 240.405 8.09743L240.492 8.048L240.579 7.99857C239.331 5.80308 237.437 4.08332 234.904 2.83825L234.86 2.928ZM240.492 8.048L240.405 8.09817C241.633 10.2152 242.248 12.587 242.248 15.216H242.348H242.448C242.448 12.5544 241.825 10.1475 240.579 7.99782L240.492 8.048ZM242.348 15.216H242.248C242.248 18.1822 241.401 20.8281 239.707 23.1572L239.788 23.216L239.869 23.2748C241.588 20.9105 242.448 18.2231 242.448 15.216H242.348ZM239.788 23.216L239.706 23.1582C238.058 25.4833 235.604 27.136 232.335 28.1122L232.364 28.208L232.393 28.3038C235.695 27.3174 238.19 25.642 239.87 23.2738L239.788 23.216ZM232.364 28.208L232.278 28.2583L242.646 46.0503L242.732 46L242.818 45.9497L232.45 28.1576L232.364 28.208ZM242.732 46V45.9H230.38V46V46.1H242.732V46ZM218.412 21.296V21.396H225.196V21.296V21.196H218.412V21.296ZM225.196 21.296V21.396C227.216 21.396 228.74 20.9018 229.747 19.8947L229.676 19.824L229.605 19.7533C228.65 20.7089 227.187 21.196 225.196 21.196V21.296ZM229.676 19.824L229.745 19.8962C230.794 18.8913 231.312 17.4756 231.312 15.664H231.212H231.112C231.112 17.4363 230.606 18.794 229.607 19.7518L229.676 19.824ZM231.212 15.664H231.312C231.312 13.936 230.793 12.5638 229.745 11.5598L229.676 11.632L229.607 11.7042C230.607 12.6629 231.112 13.9786 231.112 15.664H231.212ZM229.676 11.632L229.747 11.5613C228.74 10.5542 227.216 10.06 225.196 10.06V10.16V10.26C227.187 10.26 228.65 10.7471 229.605 11.7027L229.676 11.632ZM225.196 10.16V10.06H218.412V10.16V10.26H225.196V10.16ZM218.412 10.16H218.312V21.296H218.412H218.512V10.16H218.412Z" fill="black" mask="url(#path-1-outside-1_140_6)"/>
<defs>
<linearGradient id="paint0_linear_140_6" x1="2.27062" y1="35.0347" x2="55.3773" y2="-7.20218" gradientUnits="userSpaceOnUse">
<stop stop-color="#0047A0"/>
<stop offset="0.500036" stop-color="white"/>
<stop offset="1" stop-color="#CD2E3A"/>
</linearGradient>
</defs>
</svg>
