<svg width="243" height="47" viewBox="0 0 243 47" fill="none" xmlns="http://www.w3.org/2000/svg">
<path d="M35.288 1.072V9.84H23.384V46H12.44V9.84H0.536V1.072H35.288ZM51.7245 9.84V18.928H66.3805V27.376H51.7245V37.232H68.3005V46H40.7805V1.072H68.3005V9.84H51.7245Z" fill="#F35B04"/>
<path d="M102.926 18.992V28.08H74.7655V18.992H102.926ZM138.579 46L123.475 26.16V46H112.531V1.072H123.475V20.784L138.451 1.072H151.315L133.907 23.088L151.955 46H138.579ZM178.404 46.448C174.18 46.448 170.297 45.4667 166.756 43.504C163.257 41.5413 160.462 38.8107 158.372 35.312C156.323 31.7707 155.299 27.8027 155.299 23.408C155.299 19.0133 156.323 15.0667 158.372 11.568C160.462 8.06933 163.257 5.33867 166.756 3.376C170.297 1.41333 174.18 0.431999 178.404 0.431999C182.628 0.431999 186.489 1.41333 189.988 3.376C193.529 5.33867 196.302 8.06933 198.308 11.568C200.356 15.0667 201.38 19.0133 201.38 23.408C201.38 27.8027 200.356 31.7707 198.308 35.312C196.26 38.8107 193.486 41.5413 189.988 43.504C186.489 45.4667 182.628 46.448 178.404 46.448ZM178.404 36.464C181.988 36.464 184.846 35.2693 186.979 32.88C189.156 30.4907 190.244 27.3333 190.244 23.408C190.244 19.44 189.156 16.2827 186.979 13.936C184.846 11.5467 181.988 10.352 178.404 10.352C174.777 10.352 171.876 11.5253 169.7 13.872C167.566 16.2187 166.5 19.3973 166.5 23.408C166.5 27.376 167.566 30.5547 169.7 32.944C171.876 35.2907 174.777 36.464 178.404 36.464ZM230.38 46L221.036 29.04H218.412V46H207.468V1.072H225.836C229.377 1.072 232.385 1.69066 234.86 2.928C237.377 4.16533 239.255 5.872 240.492 8.048C241.729 10.1813 242.348 12.5707 242.348 15.216C242.348 18.2027 241.495 20.8693 239.788 23.216C238.124 25.5627 235.649 27.2267 232.364 28.208L242.732 46H230.38ZM218.412 21.296H225.196C227.201 21.296 228.695 20.8053 229.676 19.824C230.7 18.8427 231.212 17.456 231.212 15.664C231.212 13.9573 230.7 12.6133 229.676 11.632C228.695 10.6507 227.201 10.16 225.196 10.16H218.412V21.296Z" fill="black"/>
</svg>
